<svg width="15" height="17" viewBox="0 0 15 17" fill="none" xmlns="http://www.w3.org/2000/svg">
<path d="M3 10.2246C4.50883 8.87434 8.62119 6.18405 13 6.22507" stroke="white" stroke-width="0.5"/>
<path d="M4 12.2246C5.6284 10.6545 8.23735 8.33437 13 7.22461" stroke="white" stroke-width="0.5"/>
<mask id="path-3-inside-1_11_44" fill="white">
<path d="M7.5 0C9.53933 0 13.3281 0.24935 15 1.17969C14.5618 4.92125 12.273 12.2829 7.5 16.4492C2.72701 12.2829 0.438206 4.92125 0 1.17969C1.67191 0.24935 5.46067 0 7.5 0Z"/>
</mask>
<path d="M15 1.17969L15.9932 1.29601L16.0711 0.631288L15.4862 0.305863L15 1.17969ZM7.5 16.4492L6.8424 17.2026L7.5 17.7766L8.1576 17.2026L7.5 16.4492ZM0 1.17969L-0.486241 0.305863L-1.07106 0.631288L-0.993211 1.29601L0 1.17969ZM7.5 0V1C8.48647 1 9.90065 1.06069 11.2622 1.23305C12.6651 1.41065 13.8602 1.68985 14.5138 2.05351L15 1.17969L15.4862 0.305863C14.4679 -0.260815 12.9326 -0.571451 11.5134 -0.751115C10.0527 -0.936018 8.55285 -1 7.5 -1V0ZM15 1.17969L14.0068 1.06336C13.7998 2.83112 13.1453 5.51266 11.9577 8.25819C10.7689 11.0067 9.07817 13.7443 6.8424 15.6959L7.5 16.4492L8.1576 17.2026C10.6948 14.9879 12.535 11.9614 13.7934 9.05217C15.053 6.1399 15.762 3.26982 15.9932 1.29601L15 1.17969ZM7.5 16.4492L8.1576 15.6959C5.92183 13.7443 4.23113 11.0067 3.04228 8.25819C1.85474 5.51266 1.20025 2.83112 0.993211 1.06336L0 1.17969L-0.993211 1.29601C-0.762042 3.26982 -0.0530276 6.1399 1.20663 9.05217C2.46499 11.9614 4.30518 14.9879 6.8424 17.2026L7.5 16.4492ZM0 1.17969L0.486241 2.05351C1.13977 1.68985 2.33488 1.41065 3.73781 1.23305C5.09935 1.06069 6.51353 1 7.5 1V0V-1C6.44715 -1 4.94728 -0.936018 3.48663 -0.751115C2.06736 -0.571451 0.532137 -0.260815 -0.486241 0.305863L0 1.17969Z" fill="white" mask="url(#path-3-inside-1_11_44)"/>
<path d="M2 8.22461C3.66325 7.12375 8.33558 4.77019 14 5.30164" stroke="white" stroke-width="0.5"/>
</svg>
