<svg width="15" height="16" viewBox="0 0 15 16" fill="none" xmlns="http://www.w3.org/2000/svg">
<path d="M7.37012 0.00320543C9.95856 0.0194579 12.5303 0.417507 15 1.18485C14.9686 1.42035 13.8061 10.3747 7.49121 16.0003C1.14925 10.3125 0 1.17606 0 1.17606C2.3674 0.357677 4.86292 -0.0392853 7.37012 0.00320543ZM12.4463 7.30399C9.70402 8.49926 7.52215 9.83227 5.43066 12.2405H5.44434C6.07076 13.0461 6.76105 13.8015 7.50879 14.4983C9.6382 12.4632 11.3195 10.0136 12.4463 7.30399ZM12.9619 6.05985C9.60769 6.41012 6.42324 7.6975 3.7793 9.77078C4.09787 10.3438 4.45204 10.8994 4.83789 11.428C6.99623 9.32188 9.66619 7.80072 12.5898 7.01102C12.72 6.70002 12.8407 6.38417 12.9619 6.05985ZM13.1416 5.51297C9.69924 5.43746 5.49395 6.33546 2.79199 7.87723C2.98497 8.32153 3.19084 8.71759 3.40625 9.11746C6.24749 7.18289 9.57247 6.0602 13.0156 5.87332C13.0605 5.75339 13.1012 5.6329 13.1416 5.51297ZM14.1562 1.70926C9.76487 0.758353 5.21757 0.758426 0.826172 1.70926C0.88452 1.98921 0.942046 2.26535 1.00488 2.53641C2.59373 2.92744 5.69577 1.55418 5.66895 3.36258C10.4353 2.88273 11.0546 3.58976 11.1758 4.19852C12.4774 4.03855 13.2093 4.41585 13.1689 5.34012H13.2041C13.6009 4.15181 13.9193 2.93864 14.1562 1.70926Z" fill="white"/>
</svg>
